<?xml version="1.0" encoding="utf-8"?>
<!-- Generator: Adobe Illustrator 22.1.0, SVG Export Plug-In . SVG Version: 6.00 Build 0)  -->
<svg version="1.0" id="Layer_1" xmlns="http://www.w3.org/2000/svg" xmlns:xlink="http://www.w3.org/1999/xlink" x="0px" y="0px"
	 viewBox="0 0 100 100" style="enable-background:new 0 0 100 100;" xml:space="preserve">
<style type="text/css">
	.st0{fill:#FFFFFF;}
	.st1{fill:#143278;}
	.st2{fill:#E6231E;}
</style>
<rect class="st0" width="100" height="100"/>
<polygon class="st1" points="97.4,50 97.4,97.4 2.6,97.4 2.6,50 20.6,50 20.6,52.8 79.4,52.8 79.4,50 97.2,50 "/>
<polygon class="st2" points="2.6,50 2.6,50 2.6,2.6 97.4,2.6 97.4,50 97.4,50 "/>
<path class="st0" d="M49.4,58.5h0.2v3.8h-0.2c-1.4-1.4-3.8-1.8-6-1.8c-5.2,0-7.5,2.5-7.5,5.6c0,1,0.4,5.4,7.6,5.4
	c1.2,0,2.4-0.2,3.6-0.5v-3.1c0-0.8-0.6-1.5-1.4-1.5c0,0,0,0,0,0l0,0v-0.2h6.3v0.2c-0.4,0.1-0.7,0.5-0.8,1v4.9c-2.5,0.6-5,1-7.6,1.1
	c-9.9,0-12.4-3.8-12.4-7.3c0-4.6,4.7-7.7,11.2-7.7c1.7,0,3.4,0.2,5.1,0.5C48.8,59.1,49.5,58.9,49.4,58.5"/>
<path class="st0" d="M91.1,72.8l0.7-2.6h-0.2c-0.6,0.6-1.4,0.9-2.2,0.9h-5.7c-1.1,0-1.5-0.4-1.5-1.4v-9c0-0.7,0.5-1.4,1.3-1.4
	c0.1,0,0.1,0,0.2,0V59h-6.8v0.2c0.8,0,1.4,0.6,1.4,1.4c0,0,0,0,0,0v10.7c0,0.7-0.5,1.3-1.2,1.4c0,0-0.1,0-0.1,0v0.2L91.1,72.8
	L91.1,72.8z"/>
<path class="st0" d="M24.6,69.3c0,1.3-1.9,1.8-3.8,2c-3.7,0.4-9.5-0.3-11.4-3.2H9.3V73h0.2c0.2-0.5,0.8-0.8,1.4-0.7
	c1.2,0.1,4.6,1.1,9.3,1c4.9-0.1,8-1.8,8-4.8c0-3.7-4.5-4.1-10.2-4.8c-3.8-0.5-4.4-0.4-4.6-1.5c0-0.2-0.3-1.5,4.1-1.7
	c1.4-0.1,7.2-0.2,8.8,2.4h0.2v-4.1h-0.2c-0.2,0.3-0.2,0.8-1.6,0.6c-2.6-0.6-5.2-0.8-7.8-0.8c-7.4,0.4-7.6,3.6-7.7,4.3
	c0,3.5,3.7,3.8,7.3,4.4C23.3,68.2,24.7,68.3,24.6,69.3z"/>
<path class="st0" d="M73.4,68.9c0,2.4-2.2,3.8-7.6,3.9H55.3v-0.2c0.7,0.1,1.3-0.3,1.4-1c0-0.1,0-0.2,0-0.3V60.6
	c0.1-0.7-0.4-1.3-1.1-1.4c-0.1,0-0.2,0-0.3,0V59h11.1c4.6,0,6.2,1.5,6.2,3.2c0,2.2-1.9,3.1-4,3.3C70.5,65.5,73.4,66.6,73.4,68.9z
	 M68.1,62.7c0-1.8-2.1-1.9-4.2-1.9c-1,0-2.1,0-3.1,0.2v3.7c0,0,1.2,0,2.1,0C67.1,64.7,68.1,64.2,68.1,62.7L68.1,62.7z M64.8,71.2
	c1.7,0,4-0.5,4-2.3c0-2.6-4.5-2.4-8-2.2v3.5c0.1,0.6,0.7,1,1.3,1C62.9,71.2,64.8,71.2,64.8,71.2z"/>
<rect x="20.6" y="50" class="st0" width="58.8" height="2.8"/>
</svg>
